<svg style="position: absolute; width: 0; height: 0; overflow: hidden;" version="1.1" xmlns="http://www.w3.org/2000/svg" xmlns:xlink="http://www.w3.org/1999/xlink">
<defs>
<symbol id="icon-tag" viewBox="0 0 32 32">
<title>tag</title>
<path d="M27.395 16.112l-12.225-12.141h-11.141l-0.026 11.127 12.078 12.329c0.794 0.794 2.071 0.805 2.853 0.023l8.484-8.485c0.781-0.781 0.771-2.059-0.023-2.853zM6.982 9.004c0-1.104 0.896-2 2-2s2 0.896 2 2c0 1.105-0.896 2-2 2s-2-0.895-2-2zM17.863 22.952l-7.778-7.778 0.707-0.707 7.778 7.778-0.707 0.707zM19.984 20.831l-7.778-7.778 0.708-0.707 7.777 7.778-0.707 0.707zM22.105 18.709l-7.777-7.778 0.707-0.707 7.777 7.778-0.707 0.707z"></path>
</symbol>
<symbol id="icon-plus" viewBox="0 0 32 32">
<title>plus</title>
<path d="M16 29c-7.18 0-13-5.82-13-13s5.82-13 13-13 13 5.82 13 13-5.82 13-13 13zM16 6c-5.522 0-10 4.477-10 10 0 5.522 4.478 10 10 10 5.523 0 10-4.478 10-10 0-5.523-4.477-10-10-10zM19.988 17h-3v3c0 0.553-0.448 1-1 1-0.553 0-1-0.447-1-1v-3h-3c-0.553 0-1-0.448-1-1s0.447-1 1-1h3v-3c0-0.553 0.447-1 1-1 0.552 0 1 0.447 1 1v3h3c0.552 0 1 0.448 1 1s-0.448 1-1 1z"></path>
</symbol>
<symbol id="icon-checkmark" viewBox="0 0 32 32">
<title>checkmark</title>
<path d="M28.998 8.531l-2.134-2.134c-0.394-0.393-1.030-0.393-1.423 0l-12.795 12.795-6.086-6.13c-0.393-0.393-1.029-0.393-1.423 0l-2.134 2.134c-0.393 0.394-0.393 1.030 0 1.423l8.924 8.984c0.393 0.393 1.030 0.393 1.423 0l15.648-15.649c0.393-0.392 0.393-1.030 0-1.423z"></path>
</symbol>
<symbol id="icon-cancel" viewBox="0 0 32 32">
<title>cancel</title>
<path d="M19.587 16.001l6.096 6.096c0.396 0.396 0.396 1.039 0 1.435l-2.151 2.151c-0.396 0.396-1.038 0.396-1.435 0l-6.097-6.096-6.097 6.096c-0.396 0.396-1.038 0.396-1.434 0l-2.152-2.151c-0.396-0.396-0.396-1.038 0-1.435l6.097-6.096-6.097-6.097c-0.396-0.396-0.396-1.039 0-1.435l2.153-2.151c0.396-0.396 1.038-0.396 1.434 0l6.096 6.097 6.097-6.097c0.396-0.396 1.038-0.396 1.435 0l2.151 2.152c0.396 0.396 0.396 1.038 0 1.435l-6.096 6.096z"></path>
</symbol>
<symbol id="icon-spaceinvaders" viewBox="0 0 33 32">
<title>spaceinvaders</title>
<path d="M29.963 24.982v-5.947h-2.91v5.969h-3.037v2.953h-7.048v-2.975h7.048v-2.972h-14.991v2.973l6.030 0.021v2.973h-6.051v-2.951h-3.036v-6.010h-2.911v5.947h-3.057v-9.004h2.995v-2.891h2.973v-3.057h3.057v-2.994h2.994v3.003l8.983 0.024v-3.027h2.994v3.036h3.057v2.974h2.953v2.973h3.014v8.982h-3.057zM12.019 13.005h-2.994v2.995h2.994v-2.995zM23.996 13.005h-2.994v2.995h2.994v-2.995zM5.968 4.023h3.057v2.994h-3.057v-2.994zM27.053 4.023v2.994h-3.057v-2.994h3.057z"></path>
</symbol>
<symbol id="icon-envelope" viewBox="0 0 32 32">
<title>envelope</title>
<path d="M16.015 18.861l-4.072-3.343-8.862 10.463h25.876l-8.863-10.567-4.079 3.447zM29.926 6.019h-27.815l13.908 11.698 13.907-11.698zM20.705 14.887l9.291 11.084v-18.952l-9.291 7.868zM2.004 7.019v18.952l9.291-11.084-9.291-7.868z"></path>
</symbol>
</defs>
</svg>
